# xmcd
#
# Track frame offsets:
#	480
#	16845
#	23637
#	36168
#	49676
#	58426
#	61660
#	69761
#	86233
#	94915
#	105778
#	118091
#	127489
#	144033
#
# Disc length: 2180 seconds
#
# Revision: 0
# Processed by: cddbd v1.5.2PL0 Copyright (c) Steve Scherf et al.
# Submitted via: EZCDAudioConverter 8.3.2.1
#
DISCID=bb087e0e
DTITLE=Ξαρχάκος Σταύρος - Η Ελλάδα της Μελίνας-1965 Σ. Ξαρχάκος
DYEAR=2011
DGENRE=Κινηματογραφική
TTITLE0=Μερκούρη Μελίνα - Τι έχει και κλαίει το παιδί [Ευτ. Παπαγιαννοπούλου]
TTITLE1=Άνευ ερμηνευτού - Μυστράς
TTITLE2=Άνευ ερμηνευτού - Φιλοπάππου
TTITLE3=Άνευ ερμηνευτού - Προπύλαια
TTITLE4=Άνευ ερμηνευτού - Κνωσσός
TTITLE5=Άνευ ερμηνευτού - Αράχωβα
TTITLE6=Άνευ ερμηνευτού - Μοναστηράκι
TTITLE7=Μερκούρη Μελίνα - Να με θυμάσαι [Βαγγ. Γκούφας]
TTITLE8=Άνευ ερμηνευτού - Νησιά
TTITLE9=Άνευ ερμηνευτού - Στο Λυκαβηττό
TTITLE10=Άνευ ερμηνευτού - Φαιδριάδες
TTITLE11=Άνευ ερμηνευτού - Αναμνήσεις
TTITLE12=Άνευ ερμηνευτού - Τι έχει και κλαίει το παιδί
TTITLE13=Μερκούρη Μελίνα - Σαββατόβραδο στην Καισαριανή [Λευτ. Παπαδόπουλος]
EXTD=
EXTT0=
EXTT1=
EXTT2=
EXTT3=
EXTT4=
EXTT5=
EXTT6=
EXTT7=
EXTT8=
EXTT9=
EXTT10=
EXTT11=
EXTT12=
EXTT13=
PLAYORDER=
